<svg width="32" height="32" viewBox="0 0 24 24" fill="none" xmlns="http://www.w3.org/2000/svg">
  <path d="M12 2C13.1 2 14 2.9 14 4C14 5.1 13.1 6 12 6C10.9 6 10 5.1 10 4C10 2.9 10.9 2 12 2Z" fill="#0077b6"/>
  <path d="M21 9V7H15V4.5C15 3.7 14.3 3 13.5 3H10.5C9.7 3 9 3.7 9 4.5V7H3V9H5V20C5 21.1 5.9 22 7 22H17C18.1 22 19 21.1 19 20V9H21ZM11 5H13V7H11V5Z" fill="#00b4d8"/>
  <path d="M12 8C14.76 8 17 10.24 17 13C17 15.76 14.76 18 12 18C9.24 18 7 15.76 7 13C7 10.24 9.24 8 12 8Z" fill="#0096c7"/>
  <path d="M12 10C13.66 10 15 11.34 15 13C15 14.66 13.66 16 12 16C10.34 16 9 14.66 9 13C9 11.34 10.34 10 12 10Z" fill="#023e8a"/>
  <circle cx="12" cy="13" r="1.5" fill="#03045e"/>
</svg>